REM DIRINDEX 1\2,1\4,1\5,1\6,1\7,1\3\8,1\3\9,1\3\10
REM DIRNAME cjc113,folder01,folder02,folder03,folder04,folder05,folder06,folder07,folder08,folder09
TITLE ""
FILE "DB4500_5th_1A_04.mp3" MP3
  TRACK 01 AUDIO
    TITLE "7:cjc113_0199"
    INDEX 01 00:00:00
  TRACK 02 AUDIO
    TITLE "8:cjc113_0200"
    INDEX 01 00:02:16
  TRACK 03 AUDIO
    TITLE "0:"
    INDEX 01 00:03:23
  TRACK 04 AUDIO
    TITLE "9:cjc113_0201"
    INDEX 01 00:03:49
  TRACK 05 AUDIO
    TITLE "0:"
    INDEX 01 00:04:62
  TRACK 06 AUDIO
    TITLE "10:cjc113_0202"
    INDEX 01 00:05:09
  TRACK 07 AUDIO
    TITLE "0:"
    INDEX 01 00:08:40
  TRACK 08 AUDIO
    TITLE "8:cjc113_0203"
    INDEX 01 00:09:10
  TRACK 09 AUDIO
    TITLE "0:"
    INDEX 01 00:10:31
  TRACK 10 AUDIO
    TITLE "9:cjc113_0204"
    INDEX 01 00:10:53
  TRACK 11 AUDIO
    TITLE "0:"
    INDEX 01 00:11:68
  TRACK 12 AUDIO
    TITLE "10:cjc113_0205"
    INDEX 01 00:12:12
  TRACK 13 AUDIO
    TITLE "0:"
    INDEX 01 00:16:10
  TRACK 14 AUDIO
    TITLE "8:cjc113_0206"
    INDEX 01 00:16:59
  TRACK 15 AUDIO
    TITLE "0:"
    INDEX 01 00:17:70
  TRACK 16 AUDIO
    TITLE "9:cjc113_0207"
    INDEX 01 00:18:17
  TRACK 17 AUDIO
    TITLE "0:"
    INDEX 01 00:19:15
  TRACK 18 AUDIO
    TITLE "10:cjc113_0208"
    INDEX 01 00:19:34
  TRACK 19 AUDIO
    TITLE "0:"
    INDEX 01 00:22:29
  TRACK 20 AUDIO
    TITLE "10:cjc113_0209"
    INDEX 01 00:22:56
  TRACK 21 AUDIO
    TITLE "0:"
    INDEX 01 00:25:07
  TRACK 22 AUDIO
    TITLE "8:cjc113_0210"
    INDEX 01 00:25:54
  TRACK 23 AUDIO
    TITLE "0:"
    INDEX 01 00:26:62
  TRACK 24 AUDIO
    TITLE "9:cjc113_0211"
    INDEX 01 00:27:08
  TRACK 25 AUDIO
    TITLE "0:"
    INDEX 01 00:28:31
  TRACK 26 AUDIO
    TITLE "10:cjc113_0212"
    INDEX 01 00:28:53
  TRACK 27 AUDIO
    TITLE "0:"
    INDEX 01 00:31:65
  TRACK 28 AUDIO
    TITLE "8:cjc113_0213"
    INDEX 01 00:32:39
  TRACK 29 AUDIO
    TITLE "0:"
    INDEX 01 00:33:52
  TRACK 30 AUDIO
    TITLE "9:cjc113_0214"
    INDEX 01 00:33:73
  TRACK 31 AUDIO
    TITLE "0:"
    INDEX 01 00:35:10
  TRACK 32 AUDIO
    TITLE "10:cjc113_0215"
    INDEX 01 00:35:33
  TRACK 33 AUDIO
    TITLE "0:"
    INDEX 01 00:38:47
  TRACK 34 AUDIO
    TITLE "8:cjc113_0216"
    INDEX 01 00:39:21
  TRACK 35 AUDIO
    TITLE "0:"
    INDEX 01 00:40:38
  TRACK 36 AUDIO
    TITLE "9:cjc113_0217"
    INDEX 01 00:40:60
  TRACK 37 AUDIO
    TITLE "0:"
    INDEX 01 00:41:73
  TRACK 38 AUDIO
    TITLE "10:cjc113_0218"
    INDEX 01 00:42:21
  TRACK 39 AUDIO
    TITLE "0:"
    INDEX 01 00:46:07
  TRACK 40 AUDIO
    TITLE "10:cjc113_0219"
    INDEX 01 00:46:64
  TRACK 41 AUDIO
    TITLE "0:"
    INDEX 01 00:50:13
  TRACK 42 AUDIO
    TITLE "8:cjc113_0220"
    INDEX 01 00:50:62
  TRACK 43 AUDIO
    TITLE "0:"
    INDEX 01 00:51:73
  TRACK 44 AUDIO
    TITLE "9:cjc113_0221"
    INDEX 01 00:52:22
  TRACK 45 AUDIO
    TITLE "0:"
    INDEX 01 00:53:49
  TRACK 46 AUDIO
    TITLE "10:cjc113_0222"
    INDEX 01 00:53:74
  TRACK 47 AUDIO
    TITLE "0:"
    INDEX 01 00:56:67
  TRACK 48 AUDIO
    TITLE "8:cjc113_0223"
    INDEX 01 00:57:37
  TRACK 49 AUDIO
    TITLE "0:"
    INDEX 01 00:58:52
  TRACK 50 AUDIO
    TITLE "9:cjc113_0224"
    INDEX 01 00:58:73
  TRACK 51 AUDIO
    TITLE "0:"
    INDEX 01 01:00:17
  TRACK 52 AUDIO
    TITLE "10:cjc113_0225"
    INDEX 01 01:00:39
  TRACK 53 AUDIO
    TITLE "0:"
    INDEX 01 01:03:26
  TRACK 54 AUDIO
    TITLE "8:cjc113_0226"
    INDEX 01 01:04:00
  TRACK 55 AUDIO
    TITLE "0:"
    INDEX 01 01:05:13
  TRACK 56 AUDIO
    TITLE "9:cjc113_0227"
    INDEX 01 01:05:36
  TRACK 57 AUDIO
    TITLE "0:"
    INDEX 01 01:06:61
  TRACK 58 AUDIO
    TITLE "10:cjc113_0228"
    INDEX 01 01:07:08
  TRACK 59 AUDIO
    TITLE "0:"
    INDEX 01 01:11:41
  TRACK 60 AUDIO
    TITLE "8:cjc113_0229"
    INDEX 01 01:12:13
  TRACK 61 AUDIO
    TITLE "0:"
    INDEX 01 01:13:28
  TRACK 62 AUDIO
    TITLE "9:cjc113_0230"
    INDEX 01 01:13:49
  TRACK 63 AUDIO
    TITLE "0:"
    INDEX 01 01:15:19
  TRACK 64 AUDIO
    TITLE "10:cjc113_0231"
    INDEX 01 01:15:40
  TRACK 65 AUDIO
    TITLE "0:"
    INDEX 01 01:18:25
  TRACK 66 AUDIO
    TITLE "8:cjc113_0232"
    INDEX 01 01:18:74
  TRACK 67 AUDIO
    TITLE "0:"
    INDEX 01 01:20:10
  TRACK 68 AUDIO
    TITLE "9:cjc113_0233"
    INDEX 01 01:20:34
  TRACK 69 AUDIO
    TITLE "0:"
    INDEX 01 01:21:65
  TRACK 70 AUDIO
    TITLE "10:cjc113_0234"
    INDEX 01 01:22:11
  TRACK 71 AUDIO
    TITLE "0:"
    INDEX 01 01:25:31
  TRACK 72 AUDIO
    TITLE "8:cjc113_0235"
    INDEX 01 01:26:03
  TRACK 73 AUDIO
    TITLE "0:"
    INDEX 01 01:27:08
  TRACK 74 AUDIO
    TITLE "9:cjc113_0236"
    INDEX 01 01:27:28
  TRACK 75 AUDIO
    TITLE "0:"
    INDEX 01 01:28:37
  TRACK 76 AUDIO
    TITLE "10:cjc113_0237"
    INDEX 01 01:28:61
  TRACK 77 AUDIO
    TITLE "0:"
    INDEX 01 01:33:07
